<svg width="694" height="465" viewBox="0 0 694 465" fill="none" xmlns="http://www.w3.org/2000/svg">
<path fill-rule="evenodd" clip-rule="evenodd" d="M281.442 11.2744C261.023 14.4484 244.072 23.1944 231.572 37.0084C217.928 52.0854 213.295 72.6054 220.378 86.5844C223.867 93.4684 231.509 100.081 238.527 102.289C246.169 104.692 257.749 104.056 263.899 100.894C268.027 98.7704 278 89.4564 278 87.7234C278 87.2894 275.637 87.9794 272.748 89.2574C261.857 94.0734 250.099 94.5444 242.325 90.4744C227.631 82.7804 225.795 62.4494 238.609 49.3244C243.734 44.0754 255.292 38.0814 263.743 36.2914C272.574 34.4194 284.345 34.4534 295.376 36.3834C304.025 37.8964 323.877 43.4924 330.686 46.3374L334.079 47.7554L329.605 53.2484C314.268 72.0784 303.243 93.8584 288.453 134.547C278.608 161.633 273.99 172.062 267.557 181.738C261.171 191.344 249.296 202.319 241.135 206.157C234.68 209.193 234.581 209.296 237.5 209.933C242.948 211.122 251.491 210.847 257.465 209.291C278.708 203.758 294.549 184.47 309.999 145.324C328.791 97.7084 337.699 79.3124 350.888 60.8774C353.424 57.3324 355.748 54.0754 356.052 53.6394C356.355 53.2044 360.405 53.5174 365.052 54.3344C375.603 56.1914 390.466 56.2214 399.047 54.4014C405.633 53.0054 421.006 47.0754 420.993 45.9354C420.983 45.0844 382.213 30.7844 360.5 23.6234C338.646 16.4154 326.094 13.2824 311.199 11.3164C297.993 9.57342 292.441 9.56543 281.442 11.2744ZM240.883 127.729C231.89 130.605 224.051 135.637 215.915 143.755C207.381 152.27 203.949 157.592 200.222 168.091C198.007 174.332 197.647 177.039 197.597 187.824C197.545 199.023 197.83 201.157 200.336 208.324C207.703 229.401 225.381 247.926 249.915 260.281C270.84 270.819 299.563 276.211 322.535 273.915C341.521 272.016 356.413 266.388 368.034 256.716C374.89 251.01 375.771 248.88 370.072 251.787C363.697 255.039 350.032 258.59 338.916 259.882C304.568 263.875 267.858 251.783 243.127 228.328C226.687 212.737 219 197.015 219 178.981C219 159.716 229.604 141.596 247.987 129.449L253.473 125.824L249.987 125.878C248.069 125.907 243.972 126.74 240.883 127.729ZM0 301.324V310.824H14.5H29V349.824V388.824H39.5H50V349.824V310.824H64.5H79V301.324V291.824H39.5H0V301.324ZM101 316.255C85.207 320.649 74.682 333.286 73.327 349.48C71.789 367.86 82.282 383.518 99.394 388.376C108.305 390.906 121.641 390.053 129.61 386.444C136.314 383.407 143.586 376.65 146.868 370.406C153.723 357.366 151.623 338.437 142.121 327.615C132.863 317.071 115.403 312.247 101 316.255ZM177.321 316.679C169.578 319.355 165.268 322.721 162.483 328.27C159.493 334.226 159.28 340.641 161.88 346.365C164.769 352.726 168.861 355.404 181.807 359.404C195.586 363.662 198 364.992 198 368.324C198 370.985 195.304 373.167 190.692 374.239C186.558 375.199 176.355 373.052 170.563 370.002C167.778 368.535 165.21 367.199 164.856 367.032C164.503 366.865 163.068 370.133 161.669 374.294L159.125 381.86L161.313 383.29C168.963 388.292 173.184 389.324 186 389.324C197.741 389.324 198.855 389.15 204.35 386.452C208.716 384.308 210.952 382.406 213.169 378.952C215.902 374.692 216.113 373.721 215.819 366.746C215.546 360.255 215.097 358.64 212.688 355.482C209.234 350.953 202.99 347.699 191.597 344.491C181.765 341.722 178.763 339.641 179.203 335.899C179.99 329.2 190.676 329.339 207.137 336.263C208.45 336.815 209.192 335.713 210.887 330.693C213.66 322.482 213.563 321.166 210.05 319.35C201.524 314.941 186.013 313.675 177.321 316.679ZM241.558 316.301C230.473 319.472 223.595 327.684 223.534 337.824C223.463 349.325 229.868 355.272 247.707 360.271C258.867 363.398 262 365.05 262 367.808C262 375.34 246.558 376.493 233.747 369.918C227.197 366.557 227.572 366.325 224.541 375.61C222.449 382.018 222.771 382.536 231.265 386.403C236.546 388.807 239.108 389.302 248.013 389.635C260.058 390.086 264.711 389.113 271.27 384.769C278.075 380.261 280.503 375.799 280.489 367.824C280.467 355.546 274.878 350.009 257.7 345.249C246.839 342.239 243 339.896 243 336.277C243 330.308 254.34 329.346 265.665 334.355C268.794 335.738 271.683 336.522 272.086 336.097C272.489 335.672 273.729 332.399 274.842 328.824L276.866 322.324L274.834 320.583C269.482 316 250.948 313.615 241.558 316.301ZM121.039 333.844C128.535 337.668 132.769 347.213 131.062 356.444C129.838 363.07 128.314 365.728 123.771 369.165C110.267 379.382 93 370.212 93 352.824C93 336.918 107.639 327.008 121.039 333.844Z" fill="#0D3A8C"/>
<path fill-rule="evenodd" clip-rule="evenodd" d="M481.765 2.6624C479.239 4.2684 474.289 8.02737 470.765 11.0164C460.932 19.3584 459.443 20.1524 455.113 19.3704C453.048 18.9974 445.928 17.1464 439.29 15.2584C432.652 13.3694 425.215 11.8244 422.762 11.8244C418.553 11.8244 413.859 13.9154 413.859 15.7904C413.859 16.2594 417.346 18.5524 421.609 20.8854C425.872 23.2184 432.628 27.3264 436.623 30.0154C444.821 35.5324 444.789 35.2184 437.952 42.9834C432.28 49.4244 421.521 57.1864 412.465 61.3704C408.282 63.3034 404.859 65.0534 404.859 65.2594C404.859 65.4654 407.221 66.9804 410.109 68.6264C412.997 70.2724 416.91 73.2404 418.805 75.2214C423.227 79.8444 424.859 79.8544 424.859 75.2584C424.859 70.4804 426.096 68.4484 431.124 64.9684C433.453 63.3554 439.847 58.1924 445.332 53.4934C453.031 46.8994 455.608 45.2004 456.629 46.0484C458.949 47.9734 464.807 58.7534 467.92 66.8274C471.441 75.9554 473.173 77.9394 475.549 75.5634C478.915 72.1964 477.869 56.0614 473.152 38.5884L471.603 32.8524L477.701 26.3344C488.318 14.9844 493.994 6.81238 493.657 3.36238C493.394 0.68038 492.949 0.290401 489.859 0.0334007C487.358 -0.174599 485.048 0.575399 481.765 2.6624ZM386.359 80.5224C371.99 82.4274 357.383 90.8084 350.587 101.046C342.299 113.533 340.666 128.578 345.356 149.253C346.719 155.263 347.728 160.22 347.597 160.267C347.466 160.313 344.659 161.629 341.359 163.189C331.586 167.811 322.601 174.309 315.256 182.066C304.592 193.329 300.066 204.824 301.159 217.866C302.52 234.096 313.374 244.247 332.161 246.86C348.693 249.159 366.121 243.858 380.462 232.168C382.719 230.329 385.005 228.824 385.542 228.824C386.08 228.824 387.971 230.844 389.744 233.314C402.459 251.018 427.241 251.31 439.308 233.898C440.874 231.637 441.956 229.587 441.711 229.343C441.466 229.098 439.037 229.581 436.312 230.417C425.216 233.823 415.335 229.584 406.634 217.687L401.909 211.226L407.451 205.275C422.201 189.439 431.859 172.856 431.859 163.366C431.859 158.77 427.996 154.41 422.095 152.346C413.499 149.339 382.37 149.388 374.466 152.421C372.196 153.293 368.811 141.169 368.148 129.789C367.222 113.915 371.418 104.615 381.903 99.3024C387.741 96.3434 398.534 95.1034 404.458 96.7094C417.23 100.171 423.599 111.912 417.596 120.926C414.299 125.875 408.856 128.174 398.957 128.796L390.554 129.324L393.415 132.716C404.012 145.281 429.847 140.178 438.109 123.888C443.393 113.468 440.924 101.695 431.672 93.2024C421.324 83.7034 402.367 78.3984 386.359 80.5224ZM403.282 166.781C416.159 169.768 415.845 179.677 402.359 195.811L397.359 201.792L395.615 199.558C393.465 196.804 379.859 169.61 379.859 168.068C379.859 166.087 396.376 165.18 403.282 166.781ZM361.105 189.074C364.755 196.362 370.434 206.46 373.725 211.514C378.076 218.198 379.388 220.962 378.534 221.647C375.747 223.885 364.414 228.965 359.156 230.335C347.909 233.264 339.054 231.41 333.657 224.995C330.514 221.261 328.614 213.279 329.495 207.514C330.339 201.992 334.807 192.18 338.421 187.912C341.761 183.967 351.859 175.826 353.414 175.825C353.994 175.824 357.455 181.786 361.105 189.074ZM520.381 292.074C518.861 293.394 517.554 295.817 517.217 297.937C516.062 305.196 525.286 310.961 532.965 307.78C539.359 305.132 540.192 295.238 534.344 291.406C530.687 289.01 523.513 289.353 520.381 292.074ZM387.859 300.324V309.824H402.359H416.859V348.824V387.824H426.859H436.859V348.824V309.824H451.359H465.859V300.324V290.824H426.859H387.859V300.324ZM326.859 301.138C324.934 301.748 321.258 304.344 318.689 306.907C314.927 310.663 313.884 312.477 313.318 316.251C312.205 323.67 313.472 328.769 318.22 335.984L319.97 338.643L314.643 342.179C311.713 344.124 308.287 347.107 307.03 348.807C299.306 359.255 300.405 373.733 309.531 381.767C315.807 387.29 321.9 389.105 332.661 388.656C341.384 388.292 347.076 386.394 355.041 381.194C357.716 379.448 357.733 379.454 362.268 383.634L366.814 387.824H377.337C383.124 387.824 387.856 387.487 387.852 387.074C387.848 386.661 386.386 385.328 384.602 384.11C382.818 382.892 378.302 378.811 374.565 375.04L367.77 368.184L370.322 363.754C373.74 357.822 376.492 348.763 377.371 340.557L378.092 333.824H369.475H360.859V340.748C360.859 347.742 359.08 357.824 357.846 357.824C356.515 357.824 337.447 336.183 333.699 330.419C329.077 323.311 328.588 318.367 332.173 314.998C335.209 312.146 342.102 312.065 346.633 314.828C348.434 315.926 350.327 316.824 350.841 316.824C351.355 316.824 352.972 314.781 354.435 312.284C356.983 307.937 357.022 307.661 355.345 305.809C351.77 301.858 345.682 299.818 337.793 299.926C333.704 299.982 328.784 300.527 326.859 301.138ZM495.233 314.911C493.514 315.409 490.252 317.618 487.983 319.819L483.859 323.822V319.823V315.824H473.859H463.859V351.824V387.824H473.859H483.859V367.536C483.859 348.485 483.996 346.976 486.109 342.786C488.93 337.191 493.646 334.681 501.336 334.681H506.859V324.253V313.824L502.609 313.914C500.272 313.964 496.952 314.412 495.233 314.911ZM587.741 315.139C582.635 317.056 577.119 320.615 575.358 323.129C573.935 325.16 573.859 325.028 573.859 320.547V315.824H563.859H553.859V362.824V409.824H563.859H573.859V394.824C573.859 386.574 574.225 379.824 574.672 379.824C575.119 379.824 576.759 381.154 578.316 382.779C581.968 386.591 588.632 388.824 596.359 388.824C605.758 388.824 611.333 386.448 618.462 379.403C626.851 371.115 629.223 364.969 629.302 351.324C629.355 342.103 629.112 340.802 626.185 334.623C622.428 326.694 616.237 320.158 609.472 316.98C603.381 314.12 592.838 313.226 587.741 315.139ZM654.007 315.672C646.657 318.3 643.819 320.655 640.609 326.794C637.322 333.078 637.035 339.413 639.764 345.423C642.6 351.666 648.313 355.116 662.231 358.987C674.838 362.494 678.043 365.731 673.455 370.319C668.773 375.001 658.042 374.352 648.157 368.789C645.295 367.178 642.746 366.199 642.49 366.612C641.356 368.447 637.86 378.476 637.86 379.897C637.858 383.699 653.367 388.794 664.994 388.812C683.005 388.84 693.782 380.25 693.835 365.824C693.876 354.987 687.786 348.64 673.711 344.849C658.093 340.642 654.482 338.266 656.885 333.776C659.714 328.489 671.053 328.736 681.849 334.319C683.607 335.228 685.337 335.679 685.695 335.321C686.052 334.964 687.312 331.668 688.495 327.998C690.64 321.338 690.64 321.32 688.652 319.583C683.004 314.648 663.143 312.405 654.007 315.672ZM516.859 351.824V387.824H526.859H536.859V351.824V315.824H526.859H516.859V351.824ZM601.43 335.311C605.95 338.758 607.962 342.871 608.607 349.98C609.271 357.306 607.058 363.564 602.336 367.71C594.218 374.838 579.249 371.788 575.238 362.188C572.12 354.727 574.366 341.174 579.47 336.643C585.829 330.999 595.044 330.439 601.43 335.311ZM337.609 358.754C342.696 364.209 346.859 369.178 346.859 369.797C346.859 371.6 338.744 374.778 334.077 374.802C325.672 374.845 318.837 369.734 318.881 363.439C318.921 357.793 324.438 348.788 327.832 348.831C328.122 348.834 332.522 353.3 337.609 358.754Z" fill="#FF2C38"/>
<path d="M80.9318 430.034V426.909H102.75V430.034H93.6023V456H90.0795V430.034H80.9318ZM111.182 456H107.488L118.17 426.909H121.807L132.488 456H128.795L120.102 431.511H119.875L111.182 456ZM112.545 444.636H127.432V447.761H112.545V444.636ZM145.742 426.909V456H142.22V426.909H145.742ZM158.006 456V426.909H161.528V452.875H175.051V456H158.006ZM209.118 441.455C209.118 444.523 208.564 447.174 207.456 449.409C206.348 451.644 204.828 453.367 202.897 454.58C200.965 455.792 198.758 456.398 196.277 456.398C193.796 456.398 191.59 455.792 189.658 454.58C187.726 453.367 186.206 451.644 185.098 449.409C183.99 447.174 183.436 444.523 183.436 441.455C183.436 438.386 183.99 435.735 185.098 433.5C186.206 431.265 187.726 429.542 189.658 428.33C191.59 427.117 193.796 426.511 196.277 426.511C198.758 426.511 200.965 427.117 202.897 428.33C204.828 429.542 206.348 431.265 207.456 433.5C208.564 435.735 209.118 438.386 209.118 441.455ZM205.709 441.455C205.709 438.936 205.288 436.81 204.445 435.077C203.612 433.344 202.48 432.032 201.05 431.142C199.63 430.252 198.039 429.807 196.277 429.807C194.516 429.807 192.92 430.252 191.49 431.142C190.07 432.032 188.938 433.344 188.095 435.077C187.262 436.81 186.845 438.936 186.845 441.455C186.845 443.973 187.262 446.099 188.095 447.832C188.938 449.565 190.07 450.877 191.49 451.767C192.92 452.657 194.516 453.102 196.277 453.102C198.039 453.102 199.63 452.657 201.05 451.767C202.48 450.877 203.612 449.565 204.445 447.832C205.288 446.099 205.709 443.973 205.709 441.455ZM220.241 456V426.909H230.071C232.344 426.909 234.209 427.297 235.668 428.074C237.126 428.841 238.205 429.897 238.906 431.241C239.607 432.586 239.957 434.116 239.957 435.83C239.957 437.544 239.607 439.063 238.906 440.389C238.205 441.715 237.131 442.757 235.682 443.514C234.233 444.262 232.382 444.636 230.128 444.636H222.173V441.455H230.014C231.567 441.455 232.817 441.227 233.764 440.773C234.721 440.318 235.412 439.674 235.838 438.841C236.274 437.998 236.491 436.994 236.491 435.83C236.491 434.665 236.274 433.647 235.838 432.776C235.402 431.904 234.706 431.232 233.75 430.759C232.794 430.276 231.529 430.034 229.957 430.034H223.764V456H220.241ZM233.935 442.932L241.094 456H237.003L229.957 442.932H233.935ZM251.027 456V426.909H268.584V430.034H254.55V439.864H267.675V442.989H254.55V452.875H268.812V456H251.027ZM289.111 456H280.134V426.909H289.509C292.331 426.909 294.745 427.491 296.753 428.656C298.761 429.812 300.299 431.473 301.369 433.642C302.44 435.801 302.975 438.386 302.975 441.398C302.975 444.428 302.435 447.037 301.355 449.224C300.276 451.402 298.704 453.079 296.639 454.253C294.575 455.418 292.065 456 289.111 456ZM283.656 452.875H288.884C291.289 452.875 293.282 452.411 294.864 451.483C296.445 450.555 297.624 449.234 298.401 447.52C299.177 445.806 299.565 443.765 299.565 441.398C299.565 439.049 299.182 437.027 298.415 435.332C297.648 433.628 296.502 432.321 294.977 431.412C293.453 430.493 291.554 430.034 289.281 430.034H283.656V452.875ZM330.534 426.909H334.738L344.625 451.057H344.965L354.852 426.909H359.056V456H355.761V433.898H355.477L346.386 456H343.204L334.113 433.898H333.829V456H330.534V426.909ZM372.513 456H368.82L379.501 426.909H383.138L393.82 456H390.126L381.433 431.511H381.206L372.513 456ZM373.876 444.636H388.763V447.761H373.876V444.636ZM412.528 456H403.551V426.909H412.926C415.748 426.909 418.163 427.491 420.17 428.656C422.178 429.812 423.717 431.473 424.787 433.642C425.857 435.801 426.392 438.386 426.392 441.398C426.392 444.428 425.852 447.037 424.772 449.224C423.693 451.402 422.121 453.079 420.057 454.253C417.992 455.418 415.483 456 412.528 456ZM407.074 452.875H412.301C414.706 452.875 416.7 452.411 418.281 451.483C419.862 450.555 421.041 449.234 421.818 447.52C422.594 445.806 422.983 443.765 422.983 441.398C422.983 439.049 422.599 437.027 421.832 435.332C421.065 433.628 419.919 432.321 418.395 431.412C416.87 430.493 414.971 430.034 412.699 430.034H407.074V452.875ZM437.501 456V426.909H455.058V430.034H441.024V439.864H454.149V442.989H441.024V452.875H455.285V456H437.501ZM481.466 430.034V426.909H503.284V430.034H494.137V456H490.614V430.034H481.466ZM513.921 456V426.909H523.751C526.023 426.909 527.889 427.297 529.347 428.074C530.806 428.841 531.885 429.897 532.586 431.241C533.287 432.586 533.637 434.116 533.637 435.83C533.637 437.544 533.287 439.063 532.586 440.389C531.885 441.715 530.81 442.757 529.362 443.514C527.913 444.262 526.061 444.636 523.808 444.636H515.853V441.455H523.694C525.247 441.455 526.497 441.227 527.444 440.773C528.4 440.318 529.092 439.674 529.518 438.841C529.953 437.998 530.171 436.994 530.171 435.83C530.171 434.665 529.953 433.647 529.518 432.776C529.082 431.904 528.386 431.232 527.43 430.759C526.473 430.276 525.209 430.034 523.637 430.034H517.444V456H513.921ZM527.614 442.932L534.773 456H530.683L523.637 442.932H527.614ZM548.23 426.909V456H544.707V426.909H548.23ZM560.493 456V426.909H570.323C572.605 426.909 574.47 427.321 575.919 428.145C577.378 428.959 578.457 430.062 579.158 431.455C579.859 432.847 580.209 434.4 580.209 436.114C580.209 437.828 579.859 439.385 579.158 440.787C578.467 442.188 577.396 443.306 575.948 444.139C574.499 444.963 572.643 445.375 570.379 445.375H563.334V442.25H570.266C571.828 442.25 573.083 441.98 574.03 441.44C574.977 440.901 575.663 440.171 576.09 439.253C576.525 438.325 576.743 437.278 576.743 436.114C576.743 434.949 576.525 433.907 576.09 432.989C575.663 432.07 574.972 431.35 574.016 430.83C573.059 430.299 571.79 430.034 570.209 430.034H564.016V456H560.493ZM606.993 434.182C606.822 432.742 606.131 431.625 604.919 430.83C603.707 430.034 602.22 429.636 600.459 429.636C599.171 429.636 598.044 429.845 597.078 430.261C596.122 430.678 595.373 431.251 594.834 431.98C594.303 432.709 594.038 433.538 594.038 434.466C594.038 435.242 594.223 435.91 594.592 436.469C594.971 437.018 595.454 437.477 596.041 437.847C596.628 438.206 597.244 438.505 597.888 438.741C598.532 438.969 599.123 439.153 599.663 439.295L602.618 440.091C603.375 440.29 604.218 440.564 605.146 440.915C606.084 441.265 606.979 441.743 607.831 442.349C608.693 442.946 609.403 443.713 609.962 444.651C610.52 445.588 610.8 446.739 610.8 448.102C610.8 449.674 610.388 451.095 609.564 452.364C608.749 453.633 607.556 454.641 605.984 455.389C604.422 456.137 602.523 456.511 600.288 456.511C598.205 456.511 596.401 456.175 594.876 455.503C593.361 454.83 592.168 453.893 591.297 452.69C590.435 451.488 589.947 450.091 589.834 448.5H593.47C593.565 449.598 593.934 450.508 594.578 451.227C595.231 451.937 596.055 452.468 597.05 452.818C598.053 453.159 599.133 453.33 600.288 453.33C601.633 453.33 602.84 453.112 603.91 452.676C604.98 452.231 605.828 451.616 606.453 450.83C607.078 450.034 607.39 449.106 607.39 448.045C607.39 447.08 607.121 446.294 606.581 445.688C606.041 445.081 605.331 444.589 604.45 444.21C603.569 443.831 602.618 443.5 601.595 443.216L598.015 442.193C595.743 441.54 593.944 440.607 592.618 439.395C591.292 438.183 590.629 436.597 590.629 434.636C590.629 433.008 591.069 431.587 591.95 430.375C592.84 429.153 594.033 428.206 595.53 427.534C597.035 426.852 598.716 426.511 600.572 426.511C602.447 426.511 604.114 426.848 605.572 427.52C607.031 428.183 608.186 429.092 609.038 430.247C609.9 431.402 610.355 432.714 610.402 434.182H606.993Z" fill="#0D3A8C"/>
</svg>
